<svg viewBox="0 0 38 13" fill="none" xmlns="http://www.w3.org/2000/svg">
<path d="M32.8841 8.21652V2.01938e-05H36.4058V8.21652H32.8841Z" fill="currentColor"/>
<path d="M7.01957 0.0115202H1.19689C0.504347 0.0115202 0 0.515874 0 1.2091V7.03113C0 7.72368 0.504347 8.22802 1.19689 8.22802H7.01957C7.71212 8.22802 8.21647 7.72368 8.21647 7.03113V1.2091C8.21647 0.515874 7.71212 0.0115202 7.01957 0.0115202ZM4.6813 7.18954H3.4668V1.07303H4.6813V7.18954Z" fill="currentColor"/>
<path d="M21.11 0.011509H10.5925C9.8993 0.011509 9.39495 0.515863 9.39495 1.20909V8.22801H12.947V1.11092H14.1615V8.2226L17.5722 8.22124V1.11092H18.7867V8.22801H22.3063V1.20909C22.3063 0.515863 21.8019 0.011509 21.1094 0.011509H21.11Z" fill="currentColor"/>
<path d="M30.508 0.011509H24.6854C23.9928 0.011509 23.4885 0.515863 23.4885 1.20909V8.22801H27.002V1.1969H28.2165V8.22801H31.7049V1.20909C31.7049 0.515863 31.2006 0.011509 30.508 0.011509Z" fill="currentColor"/>
<path d="M9.38149 9.47747H10.0871C10.5665 9.47747 10.8924 9.74121 10.8924 10.1245C10.8924 10.5078 10.5701 10.7844 10.0871 10.7844H9.70618V11.6448H9.38149V9.47747ZM10.5607 10.1257C10.5607 9.87131 10.3497 9.75058 10.0719 9.75058H9.70618V10.4996H10.0719C10.3509 10.4996 10.5607 10.3789 10.5607 10.1245V10.1257Z" fill="currentColor"/>
<path d="M11.048 10.8596C11.048 10.3801 11.3798 10.0295 11.8312 10.0295C12.2825 10.0295 12.6143 10.3801 12.6143 10.8596C12.6143 11.3391 12.2825 11.6932 11.8312 11.6932C11.3798 11.6932 11.048 11.3426 11.048 10.8596ZM12.2954 10.8596C12.2954 10.4973 12.1067 10.2863 11.8312 10.2863C11.5557 10.2863 11.3669 10.4973 11.3669 10.8596C11.3669 11.2219 11.5592 11.4352 11.8312 11.4352C12.1032 11.4352 12.2954 11.2254 12.2954 10.8596Z" fill="currentColor"/>
<path d="M12.7924 10.0753H13.13L13.4359 11.2955L13.7548 10.0753H14.117L14.4358 11.2897L14.7429 10.0753H15.0617L14.6186 11.6448H14.26L13.9259 10.4398L13.5977 11.6448H13.2413L12.7924 10.0753Z" fill="currentColor"/>
<path d="M15.2459 10.862C15.2459 10.3672 15.5988 10.0284 16.0138 10.0284C16.4816 10.0284 16.7759 10.3661 16.7818 10.9452H15.5648C15.5836 11.2418 15.7759 11.4376 16.0478 11.4376C16.2425 11.4376 16.3574 11.3473 16.4101 11.2395H16.7443C16.6704 11.4962 16.4218 11.692 16.0408 11.692C15.5578 11.692 15.2448 11.3673 15.2448 10.862H15.2459ZM16.4687 10.6978C16.4289 10.4434 16.2671 10.2863 16.0197 10.2863C15.7911 10.2863 15.6082 10.4505 15.5707 10.6978H16.4687Z" fill="currentColor"/>
<path d="M17.1507 10.0753H17.4578V10.3825C17.5504 10.1105 17.7673 10.0179 18.0159 10.032V10.3356C17.8986 10.3262 17.8049 10.3321 17.7251 10.3637C17.5481 10.4317 17.4648 10.5982 17.4648 10.862V11.6452H17.1518V10.0753H17.1507Z" fill="currentColor"/>
<path d="M18.1576 10.862C18.1576 10.3672 18.5105 10.0284 18.9255 10.0284C19.3933 10.0284 19.6875 10.3661 19.6934 10.9452H18.4764C18.4952 11.2418 18.6875 11.4376 18.9595 11.4376C19.1541 11.4376 19.269 11.3473 19.3218 11.2395H19.6559C19.582 11.4962 19.3335 11.692 18.9524 11.692C18.4694 11.692 18.1564 11.3673 18.1564 10.862H18.1576ZM19.3804 10.6978C19.3405 10.4434 19.1787 10.2863 18.9313 10.2863C18.7027 10.2863 18.5198 10.4505 18.4823 10.6978H19.3804Z" fill="currentColor"/>
<path d="M19.9508 10.8594C19.9508 10.346 20.2485 10.0295 20.6506 10.0295C20.8956 10.0295 21.0562 10.1409 21.1464 10.2898V9.47864H21.4594V11.646H21.1464V11.4326C21.0562 11.5815 20.8956 11.6928 20.6506 11.6928C20.2485 11.6928 19.9508 11.3705 19.9508 10.8594ZM21.1523 10.8594C21.1523 10.5254 20.9636 10.2839 20.7033 10.2839C20.4431 10.2839 20.2696 10.5101 20.2696 10.8594C20.2696 11.2087 20.4302 11.4385 20.7033 11.4385C20.9764 11.4385 21.1523 11.1912 21.1523 10.8594Z" fill="currentColor"/>
<path d="M22.7135 9.47751H23.4191C23.8469 9.47751 24.1412 9.68498 24.1412 10.0437C24.1412 10.2816 23.9864 10.4621 23.7825 10.5172C24.011 10.5665 24.2033 10.7493 24.2033 11.0341C24.2033 11.421 23.8692 11.6437 23.4355 11.6437H22.7135V9.47633V9.47751ZM23.8129 10.0753C23.8129 9.84088 23.6453 9.75062 23.3886 9.75062H23.0381V10.4105H23.4062C23.6629 10.4105 23.8118 10.284 23.8118 10.0753H23.8129ZM23.4039 11.3729C23.7039 11.3729 23.8716 11.2463 23.8716 11.0201C23.8716 10.7938 23.711 10.6672 23.4074 10.6672H23.0393V11.3729H23.405H23.4039Z" fill="currentColor"/>
<path d="M24.5447 12.2672V12.0034C24.588 12.0163 24.6314 12.0187 24.6713 12.0187C24.8448 12.0187 24.9561 11.9284 24.9561 11.7584C24.9561 11.6846 24.9409 11.6283 24.9034 11.5299L24.3735 10.074H24.717L25.0323 11.0282C25.0698 11.1337 25.0968 11.2228 25.1401 11.3845H25.146C25.1859 11.2169 25.214 11.1337 25.248 11.0258L25.5422 10.0752H25.8645L25.3007 11.735C25.248 11.8956 25.2046 12.0198 25.1237 12.1124C25.0311 12.2179 24.901 12.2801 24.6935 12.2801C24.6467 12.2801 24.5974 12.2765 24.5423 12.2672H24.5447Z" fill="currentColor"/>
<path d="M26.8865 9.4775H28.3575V9.76233H27.2123V10.3883H28.1876V10.6731H27.2123V11.36H28.3728V11.6448H26.8865V9.4775Z" fill="currentColor"/>
<path d="M28.7327 10.0753H29.0398V10.2863C29.1418 10.1221 29.3118 10.0295 29.5135 10.0295C29.8265 10.0295 30.0458 10.2241 30.0458 10.5958V11.6463H29.7327V10.6275C29.7327 10.4258 29.6401 10.2898 29.4385 10.2898C29.2368 10.2898 29.0457 10.4328 29.0457 10.7693V11.6463H28.7327V10.0753Z" fill="currentColor"/>
<path d="M30.4768 11.8371H30.805C30.8449 11.9742 30.9539 12.048 31.1672 12.048C31.431 12.048 31.5916 11.8992 31.5916 11.639V11.3612C31.5201 11.4913 31.3501 11.612 31.1051 11.612C30.7277 11.612 30.4088 11.3342 30.4088 10.822C30.4088 10.3097 30.7277 10.0319 31.1051 10.0319C31.3466 10.0319 31.5201 10.1527 31.5916 10.2828V10.0753H31.8987V11.6237C31.8987 11.9765 31.6724 12.2954 31.1496 12.2954C30.7628 12.2954 30.5272 12.1371 30.478 11.8371H30.4768ZM31.5974 10.822C31.5974 10.5008 31.4239 10.2769 31.1579 10.2769C30.8918 10.2769 30.7277 10.4938 30.7277 10.822C30.7277 11.1502 30.8859 11.367 31.1579 11.367C31.4298 11.367 31.5974 11.1408 31.5974 10.822Z" fill="currentColor"/>
<path d="M32.3573 9.50927H32.7195V9.85975H32.3573V9.50927ZM32.3854 10.0754H32.6984V11.645H32.3854V10.0754Z" fill="currentColor"/>
<path d="M33.187 10.0753H33.4942V10.2863C33.5962 10.1221 33.7662 10.0295 33.9678 10.0295C34.2809 10.0295 34.5001 10.2241 34.5001 10.5958V11.6463H34.1871V10.6275C34.1871 10.4258 34.0945 10.2898 33.8928 10.2898C33.6912 10.2898 33.5001 10.4328 33.5001 10.7693V11.6463H33.187V10.0753Z" fill="currentColor"/>
<path d="M34.8572 10.862C34.8572 10.3672 35.2101 10.0284 35.6251 10.0284C36.0929 10.0284 36.3872 10.3661 36.3931 10.9452H35.1761C35.1949 11.2418 35.3872 11.4376 35.6591 11.4376C35.8538 11.4376 35.9687 11.3473 36.0214 11.2395H36.3555C36.2817 11.4962 36.0331 11.692 35.6521 11.692C35.1691 11.692 34.8561 11.3673 34.8561 10.862H34.8572ZM36.08 10.6978C36.0402 10.4434 35.8784 10.2863 35.631 10.2863C35.4024 10.2863 35.2195 10.4505 35.182 10.6978H36.08Z" fill="currentColor"/>
<path d="M37.0678 0.0906968H36.9155V0.000644151H37.3231V0.0906968H37.1694V0.568732H37.0678V0.0906968Z" fill="currentColor"/>
<path d="M37.4069 0.000677771H37.5551L37.6594 0.311469C37.6804 0.373763 37.6994 0.439437 37.7055 0.466521H37.7068C37.7156 0.43402 37.7298 0.38392 37.7508 0.320272L37.8558 0H38V0.568766H37.9011V0.341935C37.9011 0.249849 37.9025 0.186883 37.9045 0.127297L37.7569 0.568088H37.6513L37.503 0.126619C37.5057 0.190268 37.5064 0.249849 37.5064 0.341935V0.568766H37.4075V0L37.4069 0.000677771Z" fill="currentColor"/>
</svg>
